<?xml version="1.0" encoding="utf-8"?>
<!-- Generator: Adobe Illustrator 16.0.0, SVG Export Plug-In . SVG Version: 6.00 Build 0)  -->
<!DOCTYPE svg PUBLIC "-//W3C//DTD SVG 1.1//EN" "http://www.w3.org/Graphics/SVG/1.1/DTD/svg11.dtd">
<svg version="1.1" id="Layer_1" xmlns="http://www.w3.org/2000/svg" xmlns:xlink="http://www.w3.org/1999/xlink" x="0px" y="0px"
	 width="583.676px" height="395.98px" viewBox="0 0 583.676 395.98" enable-background="new 0 0 583.676 395.98"
	 xml:space="preserve">
<path fill="#700F13" stroke="#401213" stroke-miterlimit="10" d="M502.223,18.052c-0.136-0.12-0.669-0.333-1.217-0.319
	c-11.561,0.273-143.785,4.186-232.276,49.083c0,0-84.844,40.142-99.443,72.528c0,0-6.158,13.458,7.756,14.711
	s31.475-1.026,31.475-1.026l23.606-4.105l21.211-3.651c0,0,13.47-2.349,23.264-2.737s29.13-2.136,45.843-1.026
	c4.49,0.734,37.621,10.057,10.151,28.968c-28.811,19.834-159.009,86.756-159.009,86.756
	C45.271,317.424,13.519,388.927,13.519,388.927c73.296-75.842,199.324-132.484,209.194-136.66
	c64.683-27.367,148.196-81.79,148.196-81.79s46.986-33.077-15.619-46.415c0,0-35.062-6.829-75.292-1.083l-63.954,8.609
	c0,0-10.568,1.179-3.646-7.069c7.896-9.403,87.314-51.299,99.213-54.968c7.861-2.423,81.705-39.138,189.395-39.312
	c0.257,0,0.949-0.176,1.276-0.419C503.996,28.547,509.004,24.055,502.223,18.052z"/>
<rect x="13.519" y="174.899" fill="#FFFFFF" width="554.544" height="81.334"/>
<g>
	<path d="M33.404,237.007l-0.321,2.256c1.529-1.641,3.036-2.459,4.555-2.459c1.689,0,2.673,0.979,2.951,2.935
		c1.604-1.956,3.229-2.935,4.896-2.935c0.93,0,1.667,0.32,2.234,0.951c0.566,0.626,0.834,1.523,0.834,2.662
		c0,0.358-0.021,0.76-0.075,1.177l-1.198,8.473h-2.459l1.229-8.585c0.032-0.3,0.054-0.562,0.054-0.818
		c0-1.267-0.471-1.924-1.401-1.924c-0.235,0-0.481,0.053-0.791,0.16c-0.278,0.086-0.588,0.256-0.941,0.497
		c-0.353,0.219-0.823,0.625-1.443,1.214c-0.588,0.604-0.909,0.983-0.941,1.165l-1.176,8.291h-2.48l1.166-8.259
		c0.064-0.423,0.096-0.786,0.096-1.096c0-1.305-0.513-1.973-1.54-1.973c-0.652,0-1.464,0.465-2.438,1.373
		c-0.962,0.909-1.464,1.471-1.475,1.668l-1.198,8.286h-2.469l1.871-13.06H33.404z"/>
	<path d="M96.187,236.804l-1.86,13.06h-2.438l0.235-2.219c-1.497,1.614-2.951,2.422-4.309,2.422c-0.876,0-1.625-0.315-2.234-0.946
		s-0.909-1.529-0.909-2.689c0-0.342,0.011-0.673,0.064-1.016l1.219-8.611h2.47l-1.219,8.611c-0.042,0.289-0.064,0.546-0.064,0.791
		c0,1.311,0.481,1.968,1.454,1.968c1.016,0,2.33-0.957,3.934-2.876l1.197-8.494H96.187z"/>
	<path d="M138.106,237.558v2.587c-1.507-1.144-2.822-1.727-3.923-1.727c-0.513,0-0.93,0.134-1.262,0.406
		c-0.353,0.278-0.524,0.599-0.524,0.968c0,0.262,0.107,0.519,0.332,0.797c0.203,0.277,0.876,0.802,2.01,1.555
		c1.123,0.76,1.893,1.454,2.277,2.091c0.396,0.636,0.599,1.282,0.599,1.935c0,1.145-0.385,2.08-1.144,2.817
		c-0.77,0.716-1.732,1.08-2.918,1.08c-1.422,0-2.951-0.567-4.522-1.716l0.438-2.385c1.614,1.299,2.961,1.94,4.009,1.94
		c0.481,0,0.898-0.134,1.208-0.4c0.321-0.289,0.481-0.631,0.481-1.043c0-0.305-0.118-0.63-0.342-0.962
		c-0.235-0.326-0.908-0.877-2.021-1.652c-1.123-0.779-1.86-1.47-2.224-2.073c-0.363-0.604-0.535-1.219-0.535-1.828
		c0-1.128,0.375-2.031,1.112-2.722c0.749-0.689,1.753-1.031,2.994-1.031C135.466,236.194,136.781,236.648,138.106,237.558z"/>
	<polygon points="176.984,237.007 175.156,250.066 172.676,250.066 174.504,237.007 	"/>
	<path d="M174.793,232.918c0-0.406,0.128-0.738,0.406-1.017c0.278-0.288,0.62-0.422,0.994-0.422c0.396,0,0.727,0.134,1.016,0.422
		c0.268,0.278,0.406,0.61,0.406,1.017c0,0.385-0.139,0.716-0.406,0.994c-0.289,0.278-0.62,0.417-1.016,0.417
		c-0.374,0-0.716-0.139-0.994-0.417S174.793,233.303,174.793,232.918z"/>
	<path d="M221.379,246.747l-0.278,2.389c-1.133,0.62-2.341,0.931-3.646,0.931c-1.732,0-3.143-0.535-4.191-1.631
		s-1.571-2.561-1.571-4.384c0-2.201,0.791-4.067,2.384-5.591c1.583-1.502,3.614-2.267,6.083-2.267c0.631,0,1.369,0.069,2.245,0.24
		l-0.331,2.182c-0.609-0.155-1.24-0.214-1.882-0.214c-1.71,0-3.143,0.54-4.266,1.646c-1.144,1.096-1.7,2.373-1.7,3.843
		c0,1.229,0.31,2.203,0.962,2.908c0.631,0.706,1.507,1.053,2.62,1.053C218.984,247.853,220.171,247.489,221.379,246.747z"/>
	<polygon points="295.009,230.224 292.207,250.066 289.737,250.066 292.528,230.224 	"/>
	<polygon points="330.936,237.007 329.107,250.066 326.638,250.066 328.487,237.007 	"/>
	<path d="M328.755,232.918c0-0.406,0.128-0.738,0.417-1.017c0.278-0.288,0.609-0.422,1.005-0.422c0.385,0,0.705,0.134,0.994,0.422
		c0.268,0.278,0.417,0.61,0.417,1.017c0,0.385-0.149,0.716-0.417,0.994c-0.289,0.278-0.609,0.417-0.994,0.417
		c-0.396,0-0.727-0.139-1.005-0.417C328.883,233.634,328.755,233.303,328.755,232.918z"/>
	<path d="M368.969,236.665l-0.32,2.256c1.519-1.642,3.047-2.459,4.555-2.459c1.679,0,2.673,0.979,2.961,2.935
		c1.582-1.956,3.218-2.935,4.875-2.935c0.941,0,1.679,0.32,2.234,0.951c0.567,0.625,0.855,1.523,0.855,2.662
		c0,0.358-0.032,0.759-0.085,1.176l-1.197,8.473h-2.459l1.208-8.585c0.053-0.299,0.085-0.562,0.085-0.817
		c0-1.268-0.48-1.925-1.411-1.925c-0.235,0-0.503,0.054-0.78,0.161c-0.278,0.085-0.599,0.256-0.951,0.496
		c-0.354,0.22-0.823,0.626-1.422,1.214c-0.609,0.604-0.931,0.983-0.952,1.165l-1.197,8.291h-2.47l1.165-8.259
		c0.075-0.422,0.097-0.786,0.097-1.096c0-1.304-0.514-1.973-1.539-1.973c-0.663,0-1.465,0.466-2.428,1.374
		c-0.973,0.908-1.475,1.47-1.496,1.668l-1.188,8.285h-2.458l1.849-13.059H368.969z"/>
	<polygon points="423.37,237.007 421.532,250.066 419.073,250.066 420.901,237.007 	"/>
	<path d="M421.179,232.918c0-0.406,0.129-0.738,0.417-1.017c0.278-0.288,0.62-0.422,0.994-0.422c0.385,0,0.717,0.134,1.005,0.422
		c0.278,0.278,0.428,0.61,0.428,1.017c0,0.385-0.149,0.716-0.428,0.994c-0.288,0.278-0.62,0.417-1.005,0.417
		c-0.374,0-0.716-0.139-0.994-0.417C421.308,233.634,421.179,233.303,421.179,232.918z"/>
	<path d="M465.413,236.601l-0.257,1.925h-2.608l-1.272,7.146c-0.063,0.364-0.096,0.657-0.096,0.914c0,0.839,0.46,1.267,1.379,1.267
		c0.685,0,1.486-0.256,2.395-0.78l-0.139,2.411c-0.909,0.385-1.807,0.583-2.716,0.583c-1.068,0-1.902-0.272-2.544-0.808
		c-0.609-0.545-0.92-1.272-0.92-2.165c0-0.197,0.011-0.428,0.054-0.651l1.39-7.917h-2.31l0.3-1.925h2.384l0.492-2.678h2.438
		l-0.481,2.678H465.413z"/>
	<path d="M510.979,242.882c0.063-0.422,0.096-0.823,0.096-1.214c0-1.614-0.448-2.929-1.325-3.95
		c-0.866-1.005-1.988-1.523-3.304-1.523c-1.731,0-3.207,0.727-4.394,2.176c-1.198,1.454-1.808,3.261-1.808,5.372
		c0,1.919,0.503,3.453,1.508,4.597c0.994,1.155,2.32,1.728,3.967,1.728c1.571,0,3.036-0.487,4.361-1.449l0.343-2.368
		c-1.615,1.182-3.026,1.765-4.234,1.765c-0.994,0-1.828-0.343-2.48-1.032c-0.662-0.689-0.994-1.646-0.994-2.849
		c0-0.396,0.054-0.818,0.118-1.251H510.979z M506.328,238.215c0.748,0,1.314,0.278,1.731,0.802c0.428,0.529,0.631,1.24,0.631,2.154
		h-5.484C503.869,239.209,504.896,238.215,506.328,238.215z"/>
	<path d="M554.982,229.817l-0.887,6.377h-1.048c-2.641,0-4.736,0.834-6.286,2.496c-1.54,1.657-2.32,3.443-2.32,5.341
		c0,1.919,0.599,3.41,1.785,4.469c1.197,1.048,2.876,1.566,5.089,1.566c1.272,0,2.385-0.129,3.347-0.406l2.79-19.843H554.982z
		 M552.46,247.971c-0.257,0.032-0.642,0.043-1.145,0.043c-1.379,0-2.459-0.343-3.207-1.043c-0.737-0.711-1.123-1.716-1.123-3.009
		c0-1.566,0.578-2.897,1.7-4.021c1.144-1.128,2.63-1.688,4.479-1.688h0.642L552.46,247.971z"/>
</g>
<path d="M27.225,210.274l26.049,0.171c1.871,3.309,1.406,3.068,9.162,3.068c6.04,0,9.061-0.84,9.061-2.528
	c0-0.888-0.706-1.572-2.09-2.059c-1.401-0.497-3.897-0.936-7.484-1.314c-13.722-1.38-23.798-2.379-27.685-4.608
	c-3.897-2.234-6.57-5.634-6.57-8.638c0-3.875,2.219-8.005,7.831-10.579c5.597-2.569,16.026-3.929,26.535-3.705
	c29.62,0.633,30.71,6.056,33.19,14.027H72.356c-2.074-2.75-4.709-4.17-11.012-4.17c-5.233,0-7.847,0.848-7.847,2.558
	c0,0.762,0.588,1.355,1.775,1.775c1.181,0.422,3.362,1.943,6.762,2.322c9.366,1.037,17.084,1.149,21.821,1.673
	c3.988,0.444,7.559,0.957,10.194,2.897c2.635,1.936,4.576,5.603,4.576,8.237c0,4.148-2.721,9.066-9.135,11.648
	c-6.415,2.581-18.073,3.116-28.502,3.116C39.102,224.167,30.785,222.312,27.225,210.274z"/>
<polygon points="166.037,212.583 166.037,222.548 106.194,222.548 106.194,181.448 166.037,181.448 166.037,190.944 
	129.751,190.931 129.751,196.889 163.771,196.889 163.771,206.853 129.751,206.853 129.751,212.733 "/>
<polygon points="241.542,222.548 215.344,222.548 198.88,204.715 194.176,200.523 194.261,202.405 194.261,222.548 172.297,222.548 
	172.297,181.448 197.683,181.448 214.393,196.499 219.647,201.999 219.578,193.682 219.578,181.448 241.542,181.448 "/>
<rect x="328.301" y="181.448" width="22.307" height="41.1"/>
<path d="M429.978,210.964c-0.855-7.014-2.224-8.468-13-9.836c4.352-0.625,5.147-1.208,7.355-2.854
	c2.191-1.663,3.164-3.651,3.164-5.698c0-2.81-0.919-6.024-4.704-8.211c-3.773-2.191-11.856-2.911-20.109-2.911h-41.3v41.099h38.835
	c11.691,0,20.228,0.123,23.804-2.267C427.134,218.19,430.373,214.219,429.978,210.964z M385.086,191.043h10.61
	c5.346,0,8.137,0.372,8.137,2.662c0,0.842-0.583,1.638-1.717,2.376c-1.148,0.753-2.773,1.336-5.559,1.336l-11.472,0.001V191.043z
	 M403.17,212.268c-1.363,0.754-3.485,1.128-6.383,1.128h-11.701v-7.468h10.899c3.512,0,5.918,0.406,7.238,1.198
	c1.32,0.791,1.978,1.667,1.978,2.592C405.201,210.669,404.522,211.515,403.17,212.268z"/>
<polygon points="493.953,211.643 493.953,222.548 438.643,222.548 438.643,181.448 460.768,181.448 460.768,211.643 "/>
<polygon points="560.237,212.755 560.237,222.548 500.255,222.548 500.255,181.448 560.237,181.448 560.237,191.116 
	523.802,191.116 523.802,197.445 557.003,197.445 556.901,206.938 523.802,207.024 523.802,212.733 "/>
<path d="M248.502,210.167l26.049,0.171c1.871,3.304,1.406,3.068,9.162,3.068c6.041,0,9.061-0.845,9.061-2.534
	c0-0.887-0.706-1.571-2.091-2.052c-1.4-0.503-3.896-0.941-7.483-1.315c-13.722-1.379-23.798-2.384-27.685-4.607
	c-3.896-2.235-6.569-5.635-6.569-8.639c0-3.875,2.218-8.005,7.831-10.579c5.597-2.568,16.026-3.929,26.535-3.704
	c39.69,0.85,32.383,11.423,33.19,14.026l-24.13,0.006c-2.074-2.75-3.448-4.175-9.75-4.175c-5.233,0-7.848,0.847-7.848,2.558
	c0,0.762,0.588,1.355,1.775,1.774c1.181,0.423,3.362,1.943,6.762,2.317c9.365,1.037,17.084,1.155,21.82,1.679
	c3.987,0.438,7.559,0.951,10.194,2.897c2.635,1.935,4.575,5.602,4.575,8.231c0,4.148-2.721,9.066-9.136,11.653
	c-6.414,2.577-18.072,3.111-28.502,3.111C254.671,224.055,252.068,222.222,248.502,210.167z"/>
</svg>
